<?xml version="1.0" encoding="UTF-8"?> <svg xmlns="http://www.w3.org/2000/svg" width="218.181" height="41.566" viewBox="0 0 218.181 41.566"><g id="logo" transform="translate(-92.5 -68.484)"><path id="Tracé_344" data-name="Tracé 344" d="M19.618-9.248V0H15.334V-9.724a7.074,7.074,0,0,0-1-4.165,3.989,3.989,0,0,0-3.451-1.377A4.255,4.255,0,0,0,7.65-13.94a5.022,5.022,0,0,0-1.258,3.6V0H2.108V-24.48H6.392v7.31a4.749,4.749,0,0,1,2.023-1.462,7.4,7.4,0,0,1,2.975-.612q4.284,0,6.256,2.363T19.618-9.248ZM27.948-20.2H23.664V-24.48h4.284Zm0,20.2H23.664V-18.36h4.284Zm11.22-3.366a6.74,6.74,0,0,0,2.958-.527A1.569,1.569,0,0,0,43.18-5.27a1.328,1.328,0,0,0-.935-1.207,14.887,14.887,0,0,0-3.111-.833,12.208,12.208,0,0,1-5.457-2.04,4.641,4.641,0,0,1-1.751-3.842,5.453,5.453,0,0,1,2.108-4.3,7.676,7.676,0,0,1,5.134-1.785,10.814,10.814,0,0,1,4.131.7,11.267,11.267,0,0,1,3.349,2.261L43.826-13.4a7.216,7.216,0,0,0-1.972-1.258,6.915,6.915,0,0,0-2.414-.34,4.851,4.851,0,0,0-2.312.493q-.918.493-.918,1.207a1.286,1.286,0,0,0,.85,1.19,11.847,11.847,0,0,0,2.89.748,23.54,23.54,0,0,1,3.808.986,5.489,5.489,0,0,1,2.669,1.887A5.542,5.542,0,0,1,47.464-5,5.108,5.108,0,0,1,45.186-.8,9.748,9.748,0,0,1,39.168.918a10.512,10.512,0,0,1-4.4-1.02,9.662,9.662,0,0,1-3.553-2.652L34-5.712a6.091,6.091,0,0,0,2.193,1.649A6.774,6.774,0,0,0,39.168-3.366ZM56.542.918q-4.794,0-4.794-7.038v-8.262H49.3V-18.36h2.448v-6.12h4.284v6.12h3.74v3.978h-3.74v8.4a3.138,3.138,0,0,0,.408,1.836A1.47,1.47,0,0,0,57.7-3.6a8.36,8.36,0,0,0,1.734-.272L60.18.1A10.361,10.361,0,0,1,56.542.918ZM82.586-9.18a9.5,9.5,0,0,1-2.975,7.14A9.543,9.543,0,0,1,72.488.918a9.528,9.528,0,0,1-7.14-2.958A9.528,9.528,0,0,1,62.39-9.18,9.542,9.542,0,0,1,65.348-16.3a9.5,9.5,0,0,1,7.14-2.975A9.517,9.517,0,0,1,79.611-16.3,9.517,9.517,0,0,1,82.586-9.18Zm-14.195-4.1a5.593,5.593,0,0,0-1.717,4.1,5.593,5.593,0,0,0,1.717,4.1,5.593,5.593,0,0,0,4.1,1.717,5.593,5.593,0,0,0,4.1-1.717A5.593,5.593,0,0,0,78.3-9.18a5.621,5.621,0,0,0-1.7-4.1,5.576,5.576,0,0,0-4.114-1.717A5.593,5.593,0,0,0,68.391-13.277ZM98.5-18.122l-2.108,4.25A5.009,5.009,0,0,0,93.3-14.926a2.592,2.592,0,0,0-2.261,1.241A6,6,0,0,0,90.2-10.3V0H85.918V-18.36H90.2v1.19a4.3,4.3,0,0,1,1.9-1.428,6.287,6.287,0,0,1,2.788-.646A5.835,5.835,0,0,1,98.5-18.122ZM108.834.918a9.446,9.446,0,0,1-7.123-2.924A9.97,9.97,0,0,1,98.906-9.18a9.719,9.719,0,0,1,2.822-7.174,9.113,9.113,0,0,1,6.97-2.924,8.851,8.851,0,0,1,6.766,2.805,9.422,9.422,0,0,1,2.72,6.987,10.542,10.542,0,0,1-.34,2.55H103.5a5,5,0,0,0,1.768,2.448,5.514,5.514,0,0,0,3.57,1.122,6.309,6.309,0,0,0,2.584-.527,4.178,4.178,0,0,0,1.8-1.411L117.232-3.2A9.952,9.952,0,0,1,108.834.918ZM108.7-14.994a5.438,5.438,0,0,0-3.536,1.156,4.54,4.54,0,0,0-1.7,2.924h10.3a4,4,0,0,0-1.564-2.941A5.439,5.439,0,0,0,108.7-14.994Zm30.09,5.746V0H134.5V-9.724a7.074,7.074,0,0,0-1-4.165,3.989,3.989,0,0,0-3.451-1.377,4.255,4.255,0,0,0-3.23,1.326,5.022,5.022,0,0,0-1.258,3.6V0h-4.284V-18.36h4.284v1.19a4.749,4.749,0,0,1,2.023-1.462,7.4,7.4,0,0,1,2.975-.612q4.284,0,6.256,2.363T138.788-9.248Zm23.222.068a9.5,9.5,0,0,1-2.975,7.14A9.542,9.542,0,0,1,151.912.918a9.528,9.528,0,0,1-7.14-2.958,9.528,9.528,0,0,1-2.958-7.14,9.542,9.542,0,0,1,2.958-7.123,9.5,9.5,0,0,1,7.14-2.975,9.517,9.517,0,0,1,7.123,2.975A9.517,9.517,0,0,1,162.01-9.18Zm-14.195-4.1a5.593,5.593,0,0,0-1.717,4.1,5.593,5.593,0,0,0,1.717,4.1,5.593,5.593,0,0,0,4.1,1.717,5.593,5.593,0,0,0,4.1-1.717,5.593,5.593,0,0,0,1.717-4.1,5.621,5.621,0,0,0-1.7-4.1,5.576,5.576,0,0,0-4.114-1.717A5.593,5.593,0,0,0,147.815-13.277Z" transform="translate(148.67 99.938)" fill="#fff"></path><g id="Groupe_1841" data-name="Groupe 1841" transform="translate(134.613 68.604) rotate(90)"><rect id="Rectangle_582" data-name="Rectangle 582" width="4.484" height="18.834" transform="translate(18.834 0) rotate(90)" fill="#6effb7"></rect><rect id="Rectangle_583" data-name="Rectangle 583" width="4.483" height="18.834" transform="translate(4.483 18.835) rotate(180)" fill="#6effb7"></rect><rect id="Rectangle_584" data-name="Rectangle 584" width="4.483" height="18.834" transform="translate(17.661 14.491) rotate(135)" fill="#6effb7"></rect></g><path id="Tracé_325" data-name="Tracé 325" d="M-11483.607-20589.6v-27.564l7.5-9.863,7.186,9.027v22.867l11.184-10.031,11.35,10.031v-13.105" transform="translate(11578.607 20699.582)" fill="none" stroke="#fff" stroke-width="5"></path></g></svg> 